grf
version=1
nRows=15
nColumns=28
inDegrees=yes
endheader
time	ground_force_1_vx	ground_force_1_vy	ground_force_1_vz	ground_force_1_px	ground_force_1_py	ground_force_1_pz	ground_moment_1_mx	ground_moment_1_my	ground_moment_1_mz	ground_force_2_vx	ground_force_2_vy	ground_force_2_vz	ground_force_2_px	ground_force_2_py	ground_force_2_pz	ground_moment_2_mx	ground_moment_2_my	ground_moment_2_mz	ground_force_3_vx	ground_force_3_vy	ground_force_3_vz	ground_force_3_px	ground_force_3_py	ground_force_3_pz	ground_moment_3_mx	ground_moment_3_my	ground_moment_3_mz
0.867500	0.000000	0.000000	0.000000	-0.330691	0.000000	-0.473209	0.000000	0.000000	0.000000	0.000000	0.000000	0.000000	-0.669810	0.000000	-0.012246	0.000000	0.000000	0.000000	0.000000	0.000000	0.000000	0.526869	0.000000	-0.219028	0.000000	0.000000	0.000000
0.868333	0.000000	0.000000	0.000000	-0.023836	0.000000	-0.418147	0.000000	0.000000	0.000000	0.000000	0.000000	0.000000	-2.763099	-0.000000	5.826042	0.000000	0.000000	0.000000	0.000000	0.000000	0.000000	1.235682	-0.000000	0.182370	0.000000	0.000000	0.000000
0.869167	0.000000	0.000000	0.000000	-0.271383	0.000000	-0.431301	0.000000	0.000000	0.000000	0.000000	0.000000	0.000000	0.265483	0.000000	-0.213962	0.000000	0.000000	0.000000	0.000000	0.000000	0.000000	1.124379	0.000000	-0.248318	0.000000	0.000000	0.000000
0.870000	0.000000	0.000000	0.000000	-0.245383	0.000000	-0.416970	0.000000	0.000000	0.000000	0.000000	0.000000	0.000000	0.630370	0.000000	-0.402114	0.000000	0.000000	0.000000	0.000000	0.000000	0.000000	0.633376	0.000000	-0.736887	0.000000	0.000000	0.000000
0.870833	0.000000	0.000000	0.000000	-1.378504	-0.000000	0.016909	0.000000	0.000000	0.000000	0.000000	0.000000	0.000000	0.256102	0.000000	-0.420174	0.000000	0.000000	0.000000	0.000000	0.000000	0.000000	1.117483	0.000000	-0.170155	0.000000	0.000000	0.000000
0.871667	0.000000	0.000000	0.000000	-0.246950	0.000000	-0.712254	0.000000	0.000000	0.000000	0.000000	0.000000	0.000000	0.316995	-0.000000	0.670245	0.000000	0.000000	0.000000	0.000000	0.000000	0.000000	1.140881	0.000000	-0.466909	0.000000	0.000000	0.000000
0.872500	0.000000	0.000000	0.000000	-0.229479	0.000000	-0.323658	0.000000	0.000000	0.000000	0.000000	0.000000	0.000000	-1.163912	0.000000	-1.106963	0.000000	0.000000	0.000000	0.000000	0.000000	0.000000	-0.632248	-0.000000	0.946517	0.000000	0.000000	0.000000
0.873333	0.000000	0.000000	0.000000	-0.715314	0.000000	-0.685396	0.000000	0.000000	0.000000	0.000000	0.000000	0.000000	0.523711	0.000000	-0.299392	0.000000	0.000000	0.000000	0.000000	0.000000	0.000000	0.916601	0.000000	-0.393166	0.000000	0.000000	0.000000
0.874167	0.000000	0.000000	0.000000	-0.259037	0.000000	-0.499787	0.000000	0.000000	0.000000	0.000000	0.000000	0.000000	0.666907	0.000000	-0.550530	0.000000	0.000000	0.000000	0.000000	0.000000	0.000000	0.759765	0.000000	-0.777777	0.000000	0.000000	0.000000
0.875000	0.000000	0.000000	0.000000	-0.086723	0.000000	-0.309953	0.000000	0.000000	0.000000	0.000000	0.000000	0.000000	0.217703	0.000000	-0.394556	0.000000	0.000000	0.000000	0.000000	0.000000	0.000000	1.293911	0.000000	-0.604095	0.000000	0.000000	0.000000
0.875833	0.000000	0.000000	0.000000	-0.192966	0.000000	-0.284120	0.000000	0.000000	0.000000	0.000000	0.000000	0.000000	0.189539	0.000000	-0.275827	0.000000	0.000000	0.000000	0.000000	0.000000	0.000000	0.954036	0.000000	-0.478544	0.000000	0.000000	0.000000
0.876667	0.000000	0.000000	0.000000	1.393341	-0.000000	5.711508	0.000000	0.000000	0.000000	0.000000	0.000000	0.000000	-0.115317	0.000000	-0.200066	0.000000	0.000000	0.000000	0.000000	0.000000	0.000000	0.954596	0.000000	-0.239340	0.000000	0.000000	0.000000
0.877500	0.000000	0.000000	0.000000	-0.535368	0.000000	-0.858027	0.000000	0.000000	0.000000	0.000000	0.000000	0.000000	0.085048	0.000000	-0.173659	0.000000	0.000000	0.000000	0.000000	0.000000	0.000000	1.243231	0.000000	-0.244549	0.000000	0.000000	0.000000
0.878333	0.000000	0.000000	0.000000	-0.121140	0.000000	-0.434197	0.000000	0.000000	0.000000	0.000000	0.000000	0.000000	-0.380503	0.000000	-0.653761	0.000000	0.000000	0.000000	0.000000	0.000000	0.000000	0.833906	0.000000	-0.192830	0.000000	0.000000	0.000000
0.879167	0.000000	0.000000	0.000000	1.759141	-0.000000	3.882009	0.000000	0.000000	0.000000	0.000000	0.000000	0.000000	0.124146	0.000000	-0.389441	0.000000	0.000000	0.000000	0.000000	0.000000	0.000000	0.797624	0.000000	-0.119083	0.000000	0.000000	0.000000
